<?xml version="1.0" encoding="utf-8"?>
<!-- Generator: Adobe Illustrator 16.0.0, SVG Export Plug-In . SVG Version: 6.00 Build 0)  -->
<!DOCTYPE svg PUBLIC "-//W3C//DTD SVG 1.0//EN" "http://www.w3.org/TR/2001/REC-SVG-20010904/DTD/svg10.dtd">
<svg version="1.0" id="Layer_1" xmlns="http://www.w3.org/2000/svg" xmlns:xlink="http://www.w3.org/1999/xlink" x="0px" y="0px"
	 width="100px" height="100px" viewBox="0 0 100 100" enable-background="new 0 0 100 100" xml:space="preserve">
<path fill="#00B8D4" d="M73.334,39.996v-6.66C73.334,25.976,67.363,20,60,20v6.67c3.68,0,6.668,2.985,6.668,6.666v6.66
	c0,4.006,1.803,7.56,4.6,10.004c-2.797,2.443-4.6,5.992-4.6,10v6.666c0,3.682-2.988,6.667-6.67,6.667V80
	c7.357,0,13.336-5.967,13.336-13.334V60c0-3.682,2.986-6.667,6.666-6.667v-6.67C76.314,46.663,73.334,43.678,73.334,39.996z"/>
<path fill="#020202" d="M33.338,40v-6.667c0-3.683,2.988-6.667,6.67-6.667V20c-7.363,0-13.338,5.967-13.338,13.333L26.668,40
	c0,3.682-2.987,6.666-6.668,6.666v6.667l0,0l0.003,0.003c3.683,0,6.667,2.984,6.667,6.667v6.66C26.67,74.023,32.637,80,40.004,80
	v-6.67c-3.684,0-6.666-2.984-6.666-6.667v-6.66c0-4.007-1.805-7.56-4.602-10.003C31.533,47.556,33.338,44.005,33.338,40z"/>
</svg>
